<svg width="24" height="24" viewBox="0 0 24 24" fill="none" xmlns="http://www.w3.org/2000/svg">
<g filter="url(#filter0_d_1754_2464)">
<path d="M23 12C23 18.0751 18.0751 23 12 23C5.92487 23 1 18.0751 1 12C1 5.92487 5.92487 1 12 1C18.0751 1 23 5.92487 23 12ZM3.17854 12C3.17854 16.872 7.12804 20.8215 12 20.8215C16.872 20.8215 20.8215 16.872 20.8215 12C20.8215 7.12804 16.872 3.17854 12 3.17854C7.12804 3.17854 3.17854 7.12804 3.17854 12Z" fill="#F8636C"/>
<path d="M14.8438 5.75779C15.1291 5.1317 15.8748 4.84782 16.4499 5.22554C17.3023 5.78549 18.0447 6.50343 18.6348 7.3444C19.4644 8.52671 19.963 9.90922 20.0791 11.3489C20.1951 12.7886 19.9243 14.2331 19.2948 15.533C18.6652 16.8329 17.6997 17.941 16.4982 18.7426C15.2967 19.5441 13.9028 20.0101 12.4608 20.0922C11.0188 20.1743 9.58105 19.8696 8.29632 19.2096C7.01159 18.5496 5.92655 17.5583 5.15348 16.3383C4.6036 15.4705 4.22576 14.5094 4.0361 13.5073C3.90816 12.8313 4.45667 12.2517 5.14429 12.2287C5.83191 12.2058 6.39439 12.7518 6.56811 13.4175C6.71403 13.9767 6.94605 14.5124 7.25804 15.0048C7.79347 15.8498 8.54498 16.5363 9.4348 16.9935C10.3246 17.4506 11.3204 17.6616 12.3192 17.6047C13.3179 17.5479 14.2833 17.2251 15.1155 16.67C15.9477 16.1148 16.6164 15.3473 17.0524 14.447C17.4885 13.5467 17.676 12.5462 17.5956 11.5491C17.5153 10.5519 17.1699 9.59438 16.5953 8.7755C16.2605 8.29836 15.855 7.87841 15.3947 7.52894C14.8467 7.1129 14.5586 6.38389 14.8438 5.75779Z" fill="#FFDD43"/>
<path d="M11.6798 15.8173C11.6294 16.4174 11.0954 16.8745 10.5211 16.6935C9.9758 16.5217 9.46196 16.2554 9.00403 15.9039C8.25606 15.3299 7.68874 14.5531 7.36954 13.666C7.05035 12.7788 6.99272 11.8187 7.20352 10.8997C7.41432 9.98075 7.88467 9.14169 8.55862 8.48235C9.23256 7.82301 10.0817 7.37116 11.0051 7.18054C11.9284 6.98992 12.8871 7.06857 13.7671 7.40713C14.647 7.74568 15.4112 8.32989 15.9687 9.09025C16.31 9.55577 16.565 10.0753 16.7248 10.6242C16.8932 11.2024 16.4245 11.7263 15.8235 11.7635C15.2224 11.8006 14.7232 11.3239 14.4561 10.7842C14.3862 10.6431 14.304 10.5077 14.2101 10.3796C13.8996 9.95615 13.4741 9.63081 12.9841 9.44228C12.494 9.25374 11.9601 9.20994 11.4459 9.31609C10.9317 9.42224 10.4588 9.67388 10.0835 10.0411C9.70823 10.4082 9.44629 10.8755 9.3289 11.3872C9.21151 11.899 9.2436 12.4337 9.42136 12.9278C9.59911 13.4218 9.91505 13.8544 10.3316 14.174C10.4576 14.2707 10.5912 14.3559 10.7308 14.4288C11.2644 14.7077 11.7301 15.2173 11.6798 15.8173Z" fill="#39E7E1"/>
</g>
<defs>
<filter id="filter0_d_1754_2464" x="-1.31579" y="-1.31579" width="26.6316" height="26.6316" filterUnits="userSpaceOnUse" color-interpolation-filters="sRGB">
<feFlood flood-opacity="0" result="BackgroundImageFix"/>
<feColorMatrix in="SourceAlpha" type="matrix" values="0 0 0 0 0 0 0 0 0 0 0 0 0 0 0 0 0 0 127 0" result="hardAlpha"/>
<feOffset/>
<feGaussianBlur stdDeviation="1.15789"/>
<feColorMatrix type="matrix" values="0 0 0 0 0.117647 0 0 0 0 0.117647 0 0 0 0 0.117647 0 0 0 0.5 0"/>
<feBlend mode="normal" in2="BackgroundImageFix" result="effect1_dropShadow_1754_2464"/>
<feBlend mode="normal" in="SourceGraphic" in2="effect1_dropShadow_1754_2464" result="shape"/>
</filter>
</defs>
</svg>
